inDegrees=yes
name=ik_S56_A03_T01
DataType=double
version=3
OpenSimVersion=4.3-2021-08-27-4bc7ad9
endheader
time	pelvis_tilt	pelvis_list	pelvis_rotation	pelvis_tx	pelvis_ty	pelvis_tz	hip_flexion_r	hip_adduction_r	hip_rotation_r	knee_angle_r	knee_angle_r_beta	ankle_angle_r	subtalar_angle_r	mtp_angle_r	hip_flexion_l	hip_adduction_l	hip_rotation_l	knee_angle_l	knee_angle_l_beta	ankle_angle_l	subtalar_angle_l	mtp_angle_l	lumbar_extension	lumbar_bending	lumbar_rotation	arm_flex_r	arm_add_r	arm_rot_r	elbow_flex_r	pro_sup_r	wrist_flex_r	wrist_dev_r	arm_flex_l	arm_add_l	arm_rot_l	elbow_flex_l	pro_sup_l	wrist_flex_l	wrist_dev_l
26.35999999999953	2.338050083033174	-0.3236839173610301	-87.25117633977183	0	0.9399999999999999	0	10.70315716889098	-6.979246133404207	-4.991303273476352	66.92626308171931	1.168083646831929	0	0	0	8.444400336540056	8.982728853972546	-0.7682742176605284	15.70716941141218	0.2741418223976823	0	0	0	0	0	0	43.77216480580215	-43.77216480580215	4.990139662385439	84.86352794185429	85.00986061151309	0	0	43.77216480580215	-43.77216480580215	4.990139662385439	84.86352794185429	85.00986061151127	0	0
26.37999999999953	2.135033643065305	-0.2969607815265654	-86.95215086608165	0	0.9399999999999999	0	10.6574680802316	-7.046093697575325	-5.630112249681224	64.8704045851734	1.132202147112102	0	0	0	7.654916702484662	8.90864700427481	-0.4213914684817107	15.6725628241546	0.2735378235071589	0	0	0	0	0	0	43.77262822540834	-43.77262822540834	4.990147104340222	84.86363094379172	85.00985316955853	0	0	43.77262822540834	-43.77262822540834	4.990147104340222	84.86363094379172	85.00985316955671	0	0
26.39999999999953	1.843081995230682	-0.3685486571510687	-86.73645139087557	0	0.9399999999999999	0	12.44675567463525	-6.919611245018885	-5.392880010875733	64.11794952814451	1.119069328893666	0	0	0	6.66564353237526	8.83354017487847	-0.6038628490373266	15.29905665297801	0.2670189110436098	0	0	0	0	0	0	43.77667885760188	-43.77667885760188	4.990202901189031	84.86440321103471	85.00979737271162	0	0	43.77667885760188	-43.77667885760188	4.990202901189031	84.86440321103471	85.00979737270981	0	0
26.41999999999953	1.455964001826398	-0.632649021483748	-86.47929951234606	0	0.9399999999999999	0	12.15627791011436	-6.576744157281917	-5.736299211760367	64.10548002401889	1.118851694990583	0	0	0	5.418630743928706	8.632777364435556	-1.03497823590543	15.05465460394254	0.2627532905893202	0	0	0	0	0	0	43.77681409383278	-43.77681409383278	4.990205077611948	84.86443333427276	85.00979519628882	0	0	43.77681409383278	-43.77681409383278	4.990205077611948	84.86443333427276	85.00979519628703	0	0
26.43999999999953	1.046920847014043	-0.7851696663661151	-86.09076902373323	0	0.9399999999999999	0	15.70661633439293	-5.454083753092309	-4.183364036637788	60.32755322790906	1.052914433499146	0	0	0	3.130290419534808	8.543958608583075	-2.397852699727648	13.65196819270242	0.238271794340197	0	0	0	0	0	0	43.78256774663807	-43.78256774663807	4.990284545476389	84.86553322487302	85.00971572842715	0	0	43.78256774663807	-43.78256774663807	4.990284545476389	84.86553322487302	85.00971572842541	0	0
26.45999999999952	0.6755935515627157	-0.9631337597174902	-85.5476508343146	0	0.9399999999999999	0	16.99450510159641	-5.087973272307842	-3.215426454077318	59.65539340647505	1.041183031515506	0	0	0	1.822524146594739	8.061605077662513	-3.14769401475912	13.25371514655161	0.2313209674287684	0	0	0	0	0	0	43.78495105062213	-43.78495105062213	4.990318090218819	84.86599750753263	85.00968218368594	0	0	43.78495105062213	-43.78495105062213	4.990318090218819	84.86599750753263	85.00968218368419	0	0
26.47999999999952	0.4135090161971464	-1.159705168154361	-84.93657594084742	0	0.9399999999999999	0	18.1968438135536	-4.30388759162213	-2.389191624922404	53.81026289522042	0.9391662588853328	0	0	0	0.8916908668933567	7.871160148384685	-2.150758844574955	13.45003771762174	0.2347474426899228	0	0	0	0	0	0	43.7930871515762	-43.7930871515762	4.990428908161139	84.86753130490629	85.00957136574745	0	0	43.7930871515762	-43.7930871515762	4.990428908161139	84.86753130490629	85.0095713657457	0	0
26.49999999999952	0.1890871716834692	-1.3542272621223	-84.22273068389268	0	0.9399999999999999	0	19.20753633560609	-4.059641049161301	-1.996219485877234	52.42446986382908	0.9149796077363608	0	0	0	-0.1517989928821105	7.699688781737416	-1.04714812901225	13.22640701116106	0.2308443505536228	0	0	0	0	0	0	43.79353343474511	-43.79353343474511	4.990436025770544	84.86762981766165	85.00956424813825	0	0	43.79353343474511	-43.79353343474511	4.990436025770544	84.86762981766165	85.0095642481365	0	0
26.51999999999952	0.08273462192660724	-1.453053065004458	-83.47619982964642	0	0.9399999999999999	0	19.99169075605605	-3.662923485849712	-2.27415971606501	47.87724443466112	0.8356155521669676	0	0	0	-1.161485253826571	7.452000714712979	-0.2033287961704543	12.86100069268328	0.2244668071885946	0	0	0	0	0	0	43.79883152503898	-43.79883152503898	4.99050839143234	84.86863140874824	85.00949188247898	0	0	43.79883152503898	-43.79883152503898	4.99050839143234	84.86863140874824	85.00949188247725	0	0
26.53999999999952	0.07351085275576723	-1.471418783568814	-83.08855575797142	0	0.9399999999999999	0	20.71996768385531	-3.018778269631715	-2.97468014244108	42.9059836479466	0.7488506834635157	0	0	0	-1.979464363703589	7.356820141136205	0.2202510393424537	12.61416616771007	0.2201587320202159	0	0	0	0	0	0	43.80406055721709	-43.80406055721709	4.990579156237134	84.86961084279724	85.00942111767665	0	0	43.80406055721709	-43.80406055721709	4.990579156237134	84.86961084279724	85.00942111767492	0	0
26.55999999999952	0.1477313145952441	-1.470323022568882	-82.30602232517211	0	0.9399999999999999	0	21.28380259647503	-2.318941318079514	-4.402290468026514	37.89771217814515	0.6614398564817846	0	0	0	-2.103759344168979	7.418489538738418	0.9642201522457908	13.00119646376616	0.2269136849913631	0	0	0	0	0	0	43.80988443395683	-43.80988443395683	4.990657553706389	84.87069591819173	85.00934272021011	0	0	43.80988443395683	-43.80988443395683	4.990657553706389	84.87069591819173	85.00934272020831	0	0
26.57999999999952	0.4945063979417911	-1.227812938712006	-80.74007750692036	0	0.9399999999999999	0	21.79151307288351	-2.343798033858218	-6.303988219958806	35.24592646593121	0.6151574647463086	0	0	0	-2.889568686356122	7.630916336923174	2.361807587791582	12.69372013405389	0.2215472106659363	0	0	0	0	0	0	43.81035165371171	-43.81035165371171	4.990664917937535	84.87079784435431	85.00933535597927	0	0	43.81035165371171	-43.81035165371171	4.990664917937535	84.87079784435431	85.00933535597747	0	0
26.59999999999952	0.6228615676996603	-1.093455291078139	-80.0766530213612	0	0.9399999999999999	0	22.10011431658689	-1.938992462617862	-6.881237220653066	29.7894581660346	0.5199241273824154	0	0	0	-3.709153858483081	7.523270548182056	2.792633073385718	12.14761157986752	0.2120158183220783	0	0	0	0	0	0	43.81083172494593	-43.81083172494593	4.990672459437221	84.87090222403634	85.0093278144799	0	0	43.81083172494593	-43.81083172494593	4.990672459437221	84.87090222403634	85.0093278144781	0	0
26.61999999999952	0.7012157498356336	-1.078116050533066	-79.80180351745261	0	0.9399999999999999	0	22.00227448688761	-1.347753556909671	-6.036770155511206	24.07872665213761	0.4202530597675127	0	0	0	-4.65734036329643	7.374474902748521	2.888138801426679	11.66453385905337	0.2035845215508415	0	0	0	0	0	0	43.81156268134767	-43.81156268134767	4.990683981606717	84.87106169900268	85.00931629231086	0	0	43.81156268134767	-43.81156268134767	4.990683981606717	84.87106169900268	85.00931629230905	0	0
26.63999999999952	0.8820497127088764	-1.011629353780153	-79.05490700035389	0	0.9399999999999999	0	21.63583215910219	-1.696444746803333	-5.87524441248209	18.32715923060153	0.3198692711112674	0	0	0	-5.642482321504525	7.198861756510675	3.466077466279589	11.1398458535325	0.1944269883087802	0	0	0	0	0	0	43.8122468976435	-43.8122468976435	4.99069474873524	84.87121072366689	85.00930552518271	0	0	43.8122468976435	-43.8122468976435	4.99069474873524	84.87121072366689	85.00930552518091	0	0
26.65999999999952	0.9465513052070802	-0.9836571626109295	-78.80607557361547	0	0.9399999999999999	0	21.76790332211941	-1.474180227006186	-5.818032179612324	13.58983171285923	0.2371873081813343	0	0	0	-6.633046055966049	6.898007078968668	3.452287976260175	10.57047250584061	0.1844895487184542	0	0	0	0	0	0	43.81271274428064	-43.81271274428064	4.990702046564603	84.87131173077692	85.00929822735365	0	0	43.81271274428064	-43.81271274428064	4.990702046564603	84.87131173077692	85.00929822735185	0	0
26.67999999999952	1.126455242468902	-0.9800266328629764	-78.31348428699549	0	0.9399999999999999	0	21.65719909946057	-1.172105766523815	-4.641201826828364	4.651472765699737	0.08118351482830719	0	0	0	-7.835276732842508	6.750941825428038	3.719885660711372	9.558869987782462	0.1668337540568741	0	0	0	0	0	0	43.8065351787924	-43.8065351787924	4.990623244354015	84.87022105384226	85.00937702956165	0	0	43.8065351787924	-43.8065351787924	4.990623244354015	84.87022105384226	85.00937702955984	0	0
26.69999999999952	1.361086784953116	-0.9247569531743485	-77.73241670105662	0	0.9399999999999999	0	21.71188627659865	-1.61108809354667	-4.857506250463138	0.8882989184259434	0.01550374086843724	0	0	0	-9.849866087317219	6.537702299856302	3.79251679578068	8.624653774870881	0.1505286052160547	0	0	0	0	0	0	43.80695134510461	-43.80695134510461	4.990629810456162	84.87031193333674	85.00937046345977	0	0	43.80695134510461	-43.80695134510461	4.990629810456162	84.87031193333674	85.00937046345786	0	0
